<svg width="22" height="22" viewBox="0 0 22 22" fill="none" xmlns="http://www.w3.org/2000/svg">
<path d="M7.17769 9.22396C7.68815 9.22396 8.10244 8.81329 8.10244 8.30729V4.73229C8.10244 3.13408 9.41421 1.83333 11.0265 1.83333C12.6388 1.83333 13.9511 3.13408 13.9511 4.73229V8.30729C13.9511 8.81329 14.3649 9.22396 14.8758 9.22396C15.3863 9.22396 15.8006 8.81329 15.8006 8.30729V4.73229C15.801 2.123 13.6593 0 11.0265 0C8.39467 0 6.25293 2.123 6.25293 4.73229V8.30729C6.25293 8.81329 6.66722 9.22396 7.17769 9.22396Z" fill="#595959"/>
<path d="M21.6347 7.16406H17.8692C17.2379 7.16406 16.7261 7.67584 16.7261 8.30715C16.7261 9.31823 15.8966 10.1405 14.8766 10.1405C13.8566 10.1405 13.0271 9.31823 13.0271 8.30715C13.0271 7.67584 12.5153 7.16406 11.884 7.16406H10.171C9.53972 7.16406 9.02794 7.67584 9.02794 8.30715C9.02794 9.31823 8.19844 10.1405 7.17843 10.1405C6.15842 10.1405 5.32892 9.31823 5.32892 8.30715C5.32892 7.67584 4.81714 7.16406 4.18583 7.16406H0.365283C0.110051 7.16406 -0.0476206 7.36344 0.012951 7.6091L3.24868 20.6702C3.4438 21.4045 4.22337 21.9999 4.98907 21.9999H17.0109C17.7775 21.9999 18.5562 21.4045 18.7522 20.6702L21.987 7.6091C22.0476 7.36298 21.8904 7.16406 21.6347 7.16406Z" fill="#595959"/>
</svg>
